<svg xmlns="http://www.w3.org/2000/svg" width="50" height="82" fill="none" viewBox="0 0 50 82"><g filter="url(#a)"><mask id="b" width="33" height="49" x="9" y="14" fill="#000" maskUnits="userSpaceOnUse"><path fill="#fff" d="M9 14h33v49H9z"/><path d="M10.182 62V15.454h15.022q4.955 0 8.273 1.91Q36.82 19.25 38.5 22.5q1.705 3.25 1.705 7.318 0 4.069-1.682 7.341-1.682 3.25-5 5.16-3.318 1.886-8.25 1.886H13.455v-3.819h11.704q3.66 0 6.068-1.363 2.409-1.387 3.591-3.773 1.205-2.385 1.205-5.432 0-3.045-1.205-5.432-1.182-2.385-3.613-3.75-2.409-1.363-6.114-1.363H14.43V62z"/></mask><path fill="#fff" d="M10.182 62V15.454h15.022q4.955 0 8.273 1.91Q36.82 19.25 38.5 22.5q1.705 3.25 1.705 7.318 0 4.069-1.682 7.341-1.682 3.25-5 5.16-3.318 1.886-8.25 1.886H13.455v-3.819h11.704q3.66 0 6.068-1.363 2.409-1.387 3.591-3.773 1.205-2.385 1.205-5.432 0-3.045-1.205-5.432-1.182-2.385-3.613-3.75-2.409-1.363-6.114-1.363H14.43V62z"/><path fill="#000" d="M10.182 62h-1v1h1zm0-46.546v-1h-1v1zm23.295 1.91-.498.866.007.004zM38.5 22.5l-.888.46.002.005zm.023 14.66.888.459.001-.003zm-5 5.158.494.87.004-.003zm-20.069 1.887h-1v1h1zm0-3.819v-1h-1v1zm17.773-1.363.493.87.006-.004zm3.591-3.773-.893-.45-.003.006zm0-10.864-.896.444.004.007zm-3.613-3.75-.493.87.003.003zm-16.773-1.363v-1h-1v1zm0 42.727v1h1v-1zm-3.25 0V15.454h-2V62zm-1-45.546h15.022v-2H10.183zm15.022 0c3.179 0 5.752.613 7.775 1.776l.997-1.733c-2.402-1.382-5.344-2.043-8.771-2.043zm7.782 1.78c2.066 1.167 3.599 2.74 4.626 4.726l1.776-.92c-1.215-2.348-3.031-4.199-5.42-5.547zm4.628 4.73c1.054 2.009 1.59 4.286 1.59 6.854h2c0-2.856-.599-5.458-1.818-7.783zm1.59 6.854c0 2.57-.53 4.858-1.57 6.884l1.778.914c1.202-2.337 1.793-4.944 1.793-7.798zm-1.57 6.881c-1.028 1.989-2.556 3.57-4.61 4.752l.997 1.734c2.37-1.364 4.176-3.221 5.39-5.566zm-4.605 4.75c-2.024 1.15-4.592 1.756-7.756 1.756v2c3.412 0 6.343-.653 8.744-2.017zm-7.756 1.756H13.455v2h11.818zm-10.818 1v-3.819h-2v3.819zm-1-2.819h11.704v-2H13.455zm11.704 0c2.558 0 4.764-.476 6.56-1.493l-.984-1.74c-1.415.8-3.255 1.233-5.576 1.233zm6.567-1.497c1.77-1.018 3.109-2.42 3.988-4.195l-1.792-.888c-.696 1.406-1.75 2.52-3.193 3.35zm3.985-4.188c.883-1.75 1.312-3.718 1.312-5.883h-2c0 1.896-.374 3.549-1.098 4.981zm1.312-5.883c0-2.165-.43-4.133-1.312-5.882l-1.785.901c.723 1.433 1.097 3.085 1.097 4.981zm-1.309-5.875c-.881-1.78-2.232-3.176-4.02-4.179l-.979 1.745c1.455.815 2.513 1.92 3.207 3.321zm-4.017-4.177c-1.799-1.018-4.02-1.493-6.606-1.493v2c2.353 0 4.208.434 5.62 1.234zm-6.606-1.493H14.43v2h10.66zm-11.66 1V62h2V19.273zm1 41.727h-4.25v2h4.25z" mask="url(#b)"/></g><defs><filter id="a" width="49.129" height="65.651" x=".629" y="15.454" color-interpolation-filters="sRGB" filterUnits="userSpaceOnUse"><feFlood flood-opacity="0" result="BackgroundImageFix"/><feColorMatrix in="SourceAlpha" result="hardAlpha" values="0 0 0 0 0 0 0 0 0 0 0 0 0 0 0 0 0 0 127 0"/><feOffset dy="9.553"/><feGaussianBlur stdDeviation="4.777"/><feComposite in2="hardAlpha" operator="out"/><feColorMatrix values="0 0 0 0 0 0 0 0 0 0 0 0 0 0 0 0 0 0 0.25 0"/><feBlend in2="BackgroundImageFix" result="effect1_dropShadow_1_14"/><feBlend in="SourceGraphic" in2="effect1_dropShadow_1_14" result="shape"/></filter></defs></svg>